# xmcd
#
# Track frame offsets:
#	151
#	35477
#	62084
#	87030
#	107933
#	132845
#	155043
#	186770
#	215865
#	240073
#	280762
#	303860
#
# Disc length: 4453 seconds
#
# Revision: 1
# Processed by: cddbd v1.4PL0 Copyright (c) Steve Scherf et al.
# Submitted via: audiograbber 1.82.01
#
DISCID=a111630c
DTITLE=Bernard "Pretty" Purdie and Purdie's Powerhouse - Purdie Good Cookin'
DYEAR=2003
DGENRE=Jazz+Funk
TTITLE0=Memphis Soul Stew
TTITLE1=Jambalaya
TTITLE2=Kidney Stew Blues
TTITLE3=Breakfast with the Blues
TTITLE4=Grits and Gravy
TTITLE5=Home Cookin'
TTITLE6=Red Beans and Rice
TTITLE7=Givin' Up Food for Funk
TTITLE8=A Little Soul Food
TTITLE9=Mama's Cookin'
TTITLE10=Hot Popcorn
TTITLE11=Portland Clam Chowder
EXTD=Recorded live at Jimmy Mak's in Portland, OR, Nov 8, 2002.\nRnato Caranato
EXTD=Sax\nLinda Hornbuckle - Vocals\nJay "Bird" Koder - Guitar\nThara Memory
EXTD=Trumpet\nRob Paparozzi - Harmonica/Vocals\nBernard "Pretty" Purdie - Dr
EXTD=ums/Vocals
EXTT0=
EXTT1=
EXTT2=
EXTT3=
EXTT4=
EXTT5=
EXTT6=
EXTT7=
EXTT8=
EXTT9=
EXTT10=
EXTT11=
PLAYORDER=
